<mxfile host="Electron" agent="Mozilla/5.0 (X11; Linux x86_64) AppleWebKit/537.36 (KHTML, like Gecko) draw.io/26.1.1 Chrome/132.0.6834.210 Electron/34.3.2 Safari/537.36" version="26.1.1" pages="5">
  <diagram name="1" id="c-xpoYoLWD-m8ST1OSj8">
    <mxGraphModel dx="768" dy="456" grid="1" gridSize="10" guides="1" tooltips="1" connect="1" arrows="1" fold="1" page="1" pageScale="1" pageWidth="260" pageHeight="320" math="0" shadow="0">
      <root>
        <mxCell id="kjtte8bsIh_mA2MLAnuS-0" />
        <mxCell id="kjtte8bsIh_mA2MLAnuS-1" parent="kjtte8bsIh_mA2MLAnuS-0" />
        <mxCell id="kjtte8bsIh_mA2MLAnuS-5" value="headA" style="text;html=1;align=center;verticalAlign=middle;whiteSpace=wrap;rounded=0;fontSize=10;" parent="kjtte8bsIh_mA2MLAnuS-1" vertex="1">
          <mxGeometry x="60" y="100" width="160" height="20" as="geometry" />
        </mxCell>
        <mxCell id="kjtte8bsIh_mA2MLAnuS-2" style="edgeStyle=orthogonalEdgeStyle;rounded=0;orthogonalLoop=1;jettySize=auto;html=1;exitX=1;exitY=0.5;exitDx=0;exitDy=0;entryX=0;entryY=0.5;entryDx=0;entryDy=0;fillColor=#f5f5f5;strokeColor=#666666;strokeWidth=2;" parent="kjtte8bsIh_mA2MLAnuS-1" source="kjtte8bsIh_mA2MLAnuS-3" target="kjtte8bsIh_mA2MLAnuS-4" edge="1">
          <mxGeometry relative="1" as="geometry" />
        </mxCell>
        <mxCell id="kjtte8bsIh_mA2MLAnuS-3" value="1" style="text;html=1;align=center;verticalAlign=middle;whiteSpace=wrap;rounded=0;fillColor=#dae8fc;strokeColor=#6c8ebf;fontSize=14;fontColor=#333333;" parent="kjtte8bsIh_mA2MLAnuS-1" vertex="1">
          <mxGeometry x="60" y="60" width="40" height="40" as="geometry" />
        </mxCell>
        <mxCell id="kjtte8bsIh_mA2MLAnuS-4" value="3" style="text;html=1;align=center;verticalAlign=middle;whiteSpace=wrap;rounded=0;fillColor=#f5f5f5;strokeColor=#666666;fontSize=14;fontColor=#333333;" parent="kjtte8bsIh_mA2MLAnuS-1" vertex="1">
          <mxGeometry x="120" y="60" width="40" height="40" as="geometry" />
        </mxCell>
        <mxCell id="kjtte8bsIh_mA2MLAnuS-6" value="7" style="text;html=1;align=center;verticalAlign=middle;whiteSpace=wrap;rounded=0;fillColor=#f5f5f5;strokeColor=#666666;fontSize=14;fontColor=#333333;" parent="kjtte8bsIh_mA2MLAnuS-1" vertex="1">
          <mxGeometry x="180" y="60" width="40" height="40" as="geometry" />
        </mxCell>
        <mxCell id="kjtte8bsIh_mA2MLAnuS-7" style="edgeStyle=orthogonalEdgeStyle;rounded=0;orthogonalLoop=1;jettySize=auto;html=1;entryX=0;entryY=0.5;entryDx=0;entryDy=0;fillColor=#f5f5f5;strokeColor=#666666;strokeWidth=2;exitX=1;exitY=0.5;exitDx=0;exitDy=0;" parent="kjtte8bsIh_mA2MLAnuS-1" source="kjtte8bsIh_mA2MLAnuS-4" target="kjtte8bsIh_mA2MLAnuS-6" edge="1">
          <mxGeometry relative="1" as="geometry">
            <mxPoint x="169" y="90" as="sourcePoint" />
            <mxPoint x="129" y="90" as="targetPoint" />
          </mxGeometry>
        </mxCell>
        <mxCell id="kjtte8bsIh_mA2MLAnuS-12" value="current" style="text;html=1;align=center;verticalAlign=middle;whiteSpace=wrap;rounded=0;fontSize=10;" parent="kjtte8bsIh_mA2MLAnuS-1" vertex="1">
          <mxGeometry x="60" y="40" width="40" height="20" as="geometry" />
        </mxCell>
        <mxCell id="Yn_jXlsVz5iFnLLl_ZvZ-0" style="edgeStyle=orthogonalEdgeStyle;rounded=0;orthogonalLoop=1;jettySize=auto;html=1;exitX=1;exitY=0.5;exitDx=0;exitDy=0;entryX=0;entryY=0.5;entryDx=0;entryDy=0;fillColor=#f5f5f5;strokeColor=#666666;strokeWidth=2;" parent="kjtte8bsIh_mA2MLAnuS-1" source="Yn_jXlsVz5iFnLLl_ZvZ-1" target="Yn_jXlsVz5iFnLLl_ZvZ-2" edge="1">
          <mxGeometry relative="1" as="geometry" />
        </mxCell>
        <mxCell id="Yn_jXlsVz5iFnLLl_ZvZ-1" value="1" style="text;html=1;align=center;verticalAlign=middle;whiteSpace=wrap;rounded=0;fillColor=#f5f5f5;strokeColor=#666666;fontSize=14;fontColor=#333333;" parent="kjtte8bsIh_mA2MLAnuS-1" vertex="1">
          <mxGeometry x="60" y="140" width="40" height="40" as="geometry" />
        </mxCell>
        <mxCell id="Yn_jXlsVz5iFnLLl_ZvZ-2" value="2" style="text;html=1;align=center;verticalAlign=middle;whiteSpace=wrap;rounded=0;fillColor=#f5f5f5;strokeColor=#666666;fontSize=14;fontColor=#333333;" parent="kjtte8bsIh_mA2MLAnuS-1" vertex="1">
          <mxGeometry x="120" y="140" width="40" height="40" as="geometry" />
        </mxCell>
        <mxCell id="Yn_jXlsVz5iFnLLl_ZvZ-3" value="headB" style="text;html=1;align=center;verticalAlign=middle;whiteSpace=wrap;rounded=0;fontSize=10;" parent="kjtte8bsIh_mA2MLAnuS-1" vertex="1">
          <mxGeometry x="60" y="180" width="100" height="20" as="geometry" />
        </mxCell>
        <mxCell id="z-TidDHUlA_9KnaArcYb-0" value="1" style="text;html=1;align=center;verticalAlign=middle;whiteSpace=wrap;rounded=0;fillColor=#dae8fc;strokeColor=#6c8ebf;fontSize=14;fontColor=#333333;" vertex="1" parent="kjtte8bsIh_mA2MLAnuS-1">
          <mxGeometry x="60" y="220" width="40" height="40" as="geometry" />
        </mxCell>
        <mxCell id="Mlp8KUEkJmbLMhCEb_KY-0" style="edgeStyle=orthogonalEdgeStyle;rounded=0;orthogonalLoop=1;jettySize=auto;html=1;exitX=0;exitY=0.5;exitDx=0;exitDy=0;entryX=0.5;entryY=0;entryDx=0;entryDy=0;fillColor=#dae8fc;strokeColor=#6c8ebf;" edge="1" parent="kjtte8bsIh_mA2MLAnuS-1" source="kjtte8bsIh_mA2MLAnuS-3" target="z-TidDHUlA_9KnaArcYb-0">
          <mxGeometry relative="1" as="geometry">
            <Array as="points">
              <mxPoint x="40" y="80" />
              <mxPoint x="40" y="200" />
              <mxPoint x="80" y="200" />
            </Array>
          </mxGeometry>
        </mxCell>
        <mxCell id="Mlp8KUEkJmbLMhCEb_KY-2" value="result" style="text;html=1;align=center;verticalAlign=middle;whiteSpace=wrap;rounded=0;fontSize=10;" vertex="1" parent="kjtte8bsIh_mA2MLAnuS-1">
          <mxGeometry x="60" y="260" width="40" height="20" as="geometry" />
        </mxCell>
      </root>
    </mxGraphModel>
  </diagram>
  <diagram name="2" id="XrEYAicn2_jN49BPHMeY">
    <mxGraphModel dx="610" dy="362" grid="1" gridSize="10" guides="1" tooltips="1" connect="1" arrows="1" fold="1" page="1" pageScale="1" pageWidth="200" pageHeight="300" math="0" shadow="0">
      <root>
        <mxCell id="74WOCzFAQfS_qmzexO3R-0" />
        <mxCell id="74WOCzFAQfS_qmzexO3R-1" parent="74WOCzFAQfS_qmzexO3R-0" />
        <mxCell id="74WOCzFAQfS_qmzexO3R-2" value="headA" style="text;html=1;align=center;verticalAlign=middle;whiteSpace=wrap;rounded=0;fontSize=10;" vertex="1" parent="74WOCzFAQfS_qmzexO3R-1">
          <mxGeometry x="60" y="80" width="100" height="20" as="geometry" />
        </mxCell>
        <mxCell id="74WOCzFAQfS_qmzexO3R-5" value="3" style="text;html=1;align=center;verticalAlign=middle;whiteSpace=wrap;rounded=0;fillColor=#f5f5f5;strokeColor=#666666;fontSize=14;fontColor=#333333;" vertex="1" parent="74WOCzFAQfS_qmzexO3R-1">
          <mxGeometry x="60" y="40" width="40" height="40" as="geometry" />
        </mxCell>
        <mxCell id="74WOCzFAQfS_qmzexO3R-6" value="7" style="text;html=1;align=center;verticalAlign=middle;whiteSpace=wrap;rounded=0;fillColor=#f5f5f5;strokeColor=#666666;fontSize=14;fontColor=#333333;" vertex="1" parent="74WOCzFAQfS_qmzexO3R-1">
          <mxGeometry x="120" y="40" width="40" height="40" as="geometry" />
        </mxCell>
        <mxCell id="74WOCzFAQfS_qmzexO3R-7" style="edgeStyle=orthogonalEdgeStyle;rounded=0;orthogonalLoop=1;jettySize=auto;html=1;entryX=0;entryY=0.5;entryDx=0;entryDy=0;fillColor=#f5f5f5;strokeColor=#666666;strokeWidth=2;exitX=1;exitY=0.5;exitDx=0;exitDy=0;" edge="1" parent="74WOCzFAQfS_qmzexO3R-1" source="74WOCzFAQfS_qmzexO3R-5" target="74WOCzFAQfS_qmzexO3R-6">
          <mxGeometry relative="1" as="geometry">
            <mxPoint x="109" y="70" as="sourcePoint" />
            <mxPoint x="69" y="70" as="targetPoint" />
          </mxGeometry>
        </mxCell>
        <mxCell id="74WOCzFAQfS_qmzexO3R-8" value="current" style="text;html=1;align=center;verticalAlign=middle;whiteSpace=wrap;rounded=0;fontSize=10;" vertex="1" parent="74WOCzFAQfS_qmzexO3R-1">
          <mxGeometry x="60" y="100" width="40" height="20" as="geometry" />
        </mxCell>
        <mxCell id="74WOCzFAQfS_qmzexO3R-9" style="edgeStyle=orthogonalEdgeStyle;rounded=0;orthogonalLoop=1;jettySize=auto;html=1;exitX=1;exitY=0.5;exitDx=0;exitDy=0;entryX=0;entryY=0.5;entryDx=0;entryDy=0;fillColor=#f5f5f5;strokeColor=#666666;strokeWidth=2;" edge="1" parent="74WOCzFAQfS_qmzexO3R-1" source="74WOCzFAQfS_qmzexO3R-10" target="74WOCzFAQfS_qmzexO3R-11">
          <mxGeometry relative="1" as="geometry" />
        </mxCell>
        <mxCell id="74WOCzFAQfS_qmzexO3R-10" value="1" style="text;html=1;align=center;verticalAlign=middle;whiteSpace=wrap;rounded=0;fillColor=#dae8fc;strokeColor=#6c8ebf;fontSize=14;fontColor=#333333;" vertex="1" parent="74WOCzFAQfS_qmzexO3R-1">
          <mxGeometry x="60" y="120" width="40" height="40" as="geometry" />
        </mxCell>
        <mxCell id="74WOCzFAQfS_qmzexO3R-11" value="2" style="text;html=1;align=center;verticalAlign=middle;whiteSpace=wrap;rounded=0;fillColor=#f5f5f5;strokeColor=#666666;fontSize=14;fontColor=#333333;" vertex="1" parent="74WOCzFAQfS_qmzexO3R-1">
          <mxGeometry x="120" y="120" width="40" height="40" as="geometry" />
        </mxCell>
        <mxCell id="74WOCzFAQfS_qmzexO3R-12" value="headB" style="text;html=1;align=center;verticalAlign=middle;whiteSpace=wrap;rounded=0;fontSize=10;" vertex="1" parent="74WOCzFAQfS_qmzexO3R-1">
          <mxGeometry x="60" y="160" width="100" height="20" as="geometry" />
        </mxCell>
        <mxCell id="74WOCzFAQfS_qmzexO3R-13" value="1" style="text;html=1;align=center;verticalAlign=middle;whiteSpace=wrap;rounded=0;fillColor=#f5f5f5;strokeColor=#666666;fontSize=14;fontColor=#333333;" vertex="1" parent="74WOCzFAQfS_qmzexO3R-1">
          <mxGeometry x="60" y="200" width="40" height="40" as="geometry" />
        </mxCell>
        <mxCell id="74WOCzFAQfS_qmzexO3R-14" style="edgeStyle=orthogonalEdgeStyle;rounded=0;orthogonalLoop=1;jettySize=auto;html=1;exitX=0;exitY=0.5;exitDx=0;exitDy=0;entryX=0.5;entryY=0;entryDx=0;entryDy=0;fillColor=#dae8fc;strokeColor=#6c8ebf;" edge="1" parent="74WOCzFAQfS_qmzexO3R-1" source="74WOCzFAQfS_qmzexO3R-10" target="UJvbo4OdUp3ARXJvpOUJ-0">
          <mxGeometry relative="1" as="geometry" />
        </mxCell>
        <mxCell id="74WOCzFAQfS_qmzexO3R-15" value="result" style="text;html=1;align=center;verticalAlign=middle;whiteSpace=wrap;rounded=0;fontSize=10;" vertex="1" parent="74WOCzFAQfS_qmzexO3R-1">
          <mxGeometry x="60" y="240" width="100" height="20" as="geometry" />
        </mxCell>
        <mxCell id="UJvbo4OdUp3ARXJvpOUJ-0" value="1" style="text;html=1;align=center;verticalAlign=middle;whiteSpace=wrap;rounded=0;fillColor=#dae8fc;strokeColor=#6c8ebf;fontSize=14;fontColor=#333333;" vertex="1" parent="74WOCzFAQfS_qmzexO3R-1">
          <mxGeometry x="120" y="200" width="40" height="40" as="geometry" />
        </mxCell>
        <mxCell id="UJvbo4OdUp3ARXJvpOUJ-1" style="edgeStyle=orthogonalEdgeStyle;rounded=0;orthogonalLoop=1;jettySize=auto;html=1;exitX=1;exitY=0.5;exitDx=0;exitDy=0;entryX=0;entryY=0.5;entryDx=0;entryDy=0;fillColor=#f5f5f5;strokeColor=#666666;strokeWidth=2;" edge="1" parent="74WOCzFAQfS_qmzexO3R-1" source="74WOCzFAQfS_qmzexO3R-13" target="UJvbo4OdUp3ARXJvpOUJ-0">
          <mxGeometry relative="1" as="geometry">
            <mxPoint x="110" y="150" as="sourcePoint" />
            <mxPoint x="130" y="150" as="targetPoint" />
          </mxGeometry>
        </mxCell>
      </root>
    </mxGraphModel>
  </diagram>
  <diagram name="3" id="MXILP8ddt8eMYNZPOsh5">
    <mxGraphModel dx="715" dy="424" grid="1" gridSize="10" guides="1" tooltips="1" connect="1" arrows="1" fold="1" page="1" pageScale="1" pageWidth="260" pageHeight="300" math="0" shadow="0">
      <root>
        <mxCell id="ktxNqh8QLDwnsq3O7OKs-0" />
        <mxCell id="ktxNqh8QLDwnsq3O7OKs-1" parent="ktxNqh8QLDwnsq3O7OKs-0" />
        <mxCell id="ktxNqh8QLDwnsq3O7OKs-2" value="headA" style="text;html=1;align=center;verticalAlign=middle;whiteSpace=wrap;rounded=0;fontSize=10;" vertex="1" parent="ktxNqh8QLDwnsq3O7OKs-1">
          <mxGeometry x="60" y="80" width="100" height="20" as="geometry" />
        </mxCell>
        <mxCell id="ktxNqh8QLDwnsq3O7OKs-3" value="3" style="text;html=1;align=center;verticalAlign=middle;whiteSpace=wrap;rounded=0;fillColor=#f5f5f5;strokeColor=#666666;fontSize=14;fontColor=#333333;" vertex="1" parent="ktxNqh8QLDwnsq3O7OKs-1">
          <mxGeometry x="60" y="40" width="40" height="40" as="geometry" />
        </mxCell>
        <mxCell id="ktxNqh8QLDwnsq3O7OKs-4" value="7" style="text;html=1;align=center;verticalAlign=middle;whiteSpace=wrap;rounded=0;fillColor=#f5f5f5;strokeColor=#666666;fontSize=14;fontColor=#333333;" vertex="1" parent="ktxNqh8QLDwnsq3O7OKs-1">
          <mxGeometry x="120" y="40" width="40" height="40" as="geometry" />
        </mxCell>
        <mxCell id="ktxNqh8QLDwnsq3O7OKs-5" style="edgeStyle=orthogonalEdgeStyle;rounded=0;orthogonalLoop=1;jettySize=auto;html=1;entryX=0;entryY=0.5;entryDx=0;entryDy=0;fillColor=#f5f5f5;strokeColor=#666666;strokeWidth=2;exitX=1;exitY=0.5;exitDx=0;exitDy=0;" edge="1" parent="ktxNqh8QLDwnsq3O7OKs-1" source="ktxNqh8QLDwnsq3O7OKs-3" target="ktxNqh8QLDwnsq3O7OKs-4">
          <mxGeometry relative="1" as="geometry">
            <mxPoint x="109" y="70" as="sourcePoint" />
            <mxPoint x="69" y="70" as="targetPoint" />
          </mxGeometry>
        </mxCell>
        <mxCell id="ktxNqh8QLDwnsq3O7OKs-6" value="current" style="text;html=1;align=center;verticalAlign=middle;whiteSpace=wrap;rounded=0;fontSize=10;" vertex="1" parent="ktxNqh8QLDwnsq3O7OKs-1">
          <mxGeometry x="60" y="100" width="40" height="20" as="geometry" />
        </mxCell>
        <mxCell id="ktxNqh8QLDwnsq3O7OKs-8" value="2" style="text;html=1;align=center;verticalAlign=middle;whiteSpace=wrap;rounded=0;fillColor=#dae8fc;strokeColor=#6c8ebf;fontSize=14;fontColor=#333333;" vertex="1" parent="ktxNqh8QLDwnsq3O7OKs-1">
          <mxGeometry x="60" y="120" width="40" height="40" as="geometry" />
        </mxCell>
        <mxCell id="ktxNqh8QLDwnsq3O7OKs-10" value="headB" style="text;html=1;align=center;verticalAlign=middle;whiteSpace=wrap;rounded=0;fontSize=10;" vertex="1" parent="ktxNqh8QLDwnsq3O7OKs-1">
          <mxGeometry x="60" y="160" width="40" height="20" as="geometry" />
        </mxCell>
        <mxCell id="ktxNqh8QLDwnsq3O7OKs-11" value="1" style="text;html=1;align=center;verticalAlign=middle;whiteSpace=wrap;rounded=0;fillColor=#f5f5f5;strokeColor=#666666;fontSize=14;fontColor=#333333;" vertex="1" parent="ktxNqh8QLDwnsq3O7OKs-1">
          <mxGeometry x="60" y="200" width="40" height="40" as="geometry" />
        </mxCell>
        <mxCell id="ktxNqh8QLDwnsq3O7OKs-12" style="edgeStyle=orthogonalEdgeStyle;rounded=0;orthogonalLoop=1;jettySize=auto;html=1;exitX=0;exitY=0.5;exitDx=0;exitDy=0;entryX=0.5;entryY=0;entryDx=0;entryDy=0;fillColor=#dae8fc;strokeColor=#6c8ebf;" edge="1" parent="ktxNqh8QLDwnsq3O7OKs-1" source="ktxNqh8QLDwnsq3O7OKs-8" target="EOPSf1oMuqSDxit2tzjz-0">
          <mxGeometry relative="1" as="geometry" />
        </mxCell>
        <mxCell id="ktxNqh8QLDwnsq3O7OKs-13" value="result" style="text;html=1;align=center;verticalAlign=middle;whiteSpace=wrap;rounded=0;fontSize=10;" vertex="1" parent="ktxNqh8QLDwnsq3O7OKs-1">
          <mxGeometry x="60" y="240" width="160" height="20" as="geometry" />
        </mxCell>
        <mxCell id="ktxNqh8QLDwnsq3O7OKs-14" value="1" style="text;html=1;align=center;verticalAlign=middle;whiteSpace=wrap;rounded=0;fillColor=#f5f5f5;strokeColor=#666666;fontSize=14;fontColor=#333333;" vertex="1" parent="ktxNqh8QLDwnsq3O7OKs-1">
          <mxGeometry x="120" y="200" width="40" height="40" as="geometry" />
        </mxCell>
        <mxCell id="ktxNqh8QLDwnsq3O7OKs-15" style="edgeStyle=orthogonalEdgeStyle;rounded=0;orthogonalLoop=1;jettySize=auto;html=1;exitX=1;exitY=0.5;exitDx=0;exitDy=0;entryX=0;entryY=0.5;entryDx=0;entryDy=0;fillColor=#f5f5f5;strokeColor=#666666;strokeWidth=2;" edge="1" parent="ktxNqh8QLDwnsq3O7OKs-1" source="ktxNqh8QLDwnsq3O7OKs-11" target="ktxNqh8QLDwnsq3O7OKs-14">
          <mxGeometry relative="1" as="geometry">
            <mxPoint x="110" y="150" as="sourcePoint" />
            <mxPoint x="130" y="150" as="targetPoint" />
          </mxGeometry>
        </mxCell>
        <mxCell id="EOPSf1oMuqSDxit2tzjz-0" value="2" style="text;html=1;align=center;verticalAlign=middle;whiteSpace=wrap;rounded=0;fillColor=#dae8fc;strokeColor=#6c8ebf;fontSize=14;fontColor=#333333;" vertex="1" parent="ktxNqh8QLDwnsq3O7OKs-1">
          <mxGeometry x="180" y="200" width="40" height="40" as="geometry" />
        </mxCell>
        <mxCell id="EOPSf1oMuqSDxit2tzjz-2" style="edgeStyle=orthogonalEdgeStyle;rounded=0;orthogonalLoop=1;jettySize=auto;html=1;exitX=1;exitY=0.5;exitDx=0;exitDy=0;entryX=0;entryY=0.5;entryDx=0;entryDy=0;fillColor=#f5f5f5;strokeColor=#666666;strokeWidth=2;" edge="1" parent="ktxNqh8QLDwnsq3O7OKs-1" source="ktxNqh8QLDwnsq3O7OKs-14" target="EOPSf1oMuqSDxit2tzjz-0">
          <mxGeometry relative="1" as="geometry">
            <mxPoint x="110" y="230" as="sourcePoint" />
            <mxPoint x="130" y="230" as="targetPoint" />
          </mxGeometry>
        </mxCell>
      </root>
    </mxGraphModel>
  </diagram>
  <diagram name="4" id="VBb231TD6JUQNfREBn7q">
    <mxGraphModel dx="864" dy="513" grid="1" gridSize="10" guides="1" tooltips="1" connect="1" arrows="1" fold="1" page="1" pageScale="1" pageWidth="320" pageHeight="240" math="0" shadow="0">
      <root>
        <mxCell id="EZZl3KFryeYBes5gL5bF-0" />
        <mxCell id="EZZl3KFryeYBes5gL5bF-1" parent="EZZl3KFryeYBes5gL5bF-0" />
        <mxCell id="EZZl3KFryeYBes5gL5bF-2" value="headA" style="text;html=1;align=center;verticalAlign=middle;whiteSpace=wrap;rounded=0;fontSize=10;" vertex="1" parent="EZZl3KFryeYBes5gL5bF-1">
          <mxGeometry x="60" y="100" width="100" height="20" as="geometry" />
        </mxCell>
        <mxCell id="EZZl3KFryeYBes5gL5bF-3" value="3" style="text;html=1;align=center;verticalAlign=middle;whiteSpace=wrap;rounded=0;fillColor=#dae8fc;strokeColor=#6c8ebf;fontSize=14;labelBackgroundColor=none;fontColor=#333333;" vertex="1" parent="EZZl3KFryeYBes5gL5bF-1">
          <mxGeometry x="60" y="60" width="40" height="40" as="geometry" />
        </mxCell>
        <mxCell id="EZZl3KFryeYBes5gL5bF-4" value="7" style="text;html=1;align=center;verticalAlign=middle;whiteSpace=wrap;rounded=0;fillColor=#f5f5f5;strokeColor=#666666;fontSize=14;fontColor=#333333;" vertex="1" parent="EZZl3KFryeYBes5gL5bF-1">
          <mxGeometry x="120" y="60" width="40" height="40" as="geometry" />
        </mxCell>
        <mxCell id="EZZl3KFryeYBes5gL5bF-5" style="edgeStyle=orthogonalEdgeStyle;rounded=0;orthogonalLoop=1;jettySize=auto;html=1;entryX=0;entryY=0.5;entryDx=0;entryDy=0;fillColor=#f5f5f5;strokeColor=#666666;strokeWidth=2;exitX=1;exitY=0.5;exitDx=0;exitDy=0;" edge="1" parent="EZZl3KFryeYBes5gL5bF-1" source="EZZl3KFryeYBes5gL5bF-3" target="EZZl3KFryeYBes5gL5bF-4">
          <mxGeometry relative="1" as="geometry">
            <mxPoint x="109" y="90" as="sourcePoint" />
            <mxPoint x="69" y="90" as="targetPoint" />
          </mxGeometry>
        </mxCell>
        <mxCell id="EZZl3KFryeYBes5gL5bF-6" value="current" style="text;html=1;align=center;verticalAlign=middle;whiteSpace=wrap;rounded=0;fontSize=10;" vertex="1" parent="EZZl3KFryeYBes5gL5bF-1">
          <mxGeometry x="60" y="40" width="40" height="20" as="geometry" />
        </mxCell>
        <mxCell id="EZZl3KFryeYBes5gL5bF-9" value="1" style="text;html=1;align=center;verticalAlign=middle;whiteSpace=wrap;rounded=0;fillColor=#f5f5f5;strokeColor=#666666;fontSize=14;fontColor=#333333;" vertex="1" parent="EZZl3KFryeYBes5gL5bF-1">
          <mxGeometry x="60" y="140" width="40" height="40" as="geometry" />
        </mxCell>
        <mxCell id="EZZl3KFryeYBes5gL5bF-10" style="edgeStyle=orthogonalEdgeStyle;rounded=0;orthogonalLoop=1;jettySize=auto;html=1;exitX=0;exitY=0.5;exitDx=0;exitDy=0;entryX=0.5;entryY=0;entryDx=0;entryDy=0;fillColor=#dae8fc;strokeColor=#6c8ebf;" edge="1" parent="EZZl3KFryeYBes5gL5bF-1" source="EZZl3KFryeYBes5gL5bF-3" target="hByUk7qWorefqkr1HsWi-0">
          <mxGeometry relative="1" as="geometry">
            <Array as="points">
              <mxPoint x="40" y="80" />
              <mxPoint x="40" y="120" />
              <mxPoint x="260" y="120" />
            </Array>
          </mxGeometry>
        </mxCell>
        <mxCell id="EZZl3KFryeYBes5gL5bF-11" value="result" style="text;html=1;align=center;verticalAlign=middle;whiteSpace=wrap;rounded=0;fontSize=10;" vertex="1" parent="EZZl3KFryeYBes5gL5bF-1">
          <mxGeometry x="60" y="180" width="220" height="20" as="geometry" />
        </mxCell>
        <mxCell id="EZZl3KFryeYBes5gL5bF-12" value="1" style="text;html=1;align=center;verticalAlign=middle;whiteSpace=wrap;rounded=0;fillColor=#f5f5f5;strokeColor=#666666;fontSize=14;fontColor=#333333;" vertex="1" parent="EZZl3KFryeYBes5gL5bF-1">
          <mxGeometry x="120" y="140" width="40" height="40" as="geometry" />
        </mxCell>
        <mxCell id="EZZl3KFryeYBes5gL5bF-13" style="edgeStyle=orthogonalEdgeStyle;rounded=0;orthogonalLoop=1;jettySize=auto;html=1;exitX=1;exitY=0.5;exitDx=0;exitDy=0;entryX=0;entryY=0.5;entryDx=0;entryDy=0;fillColor=#f5f5f5;strokeColor=#666666;strokeWidth=2;" edge="1" parent="EZZl3KFryeYBes5gL5bF-1" source="EZZl3KFryeYBes5gL5bF-9" target="EZZl3KFryeYBes5gL5bF-12">
          <mxGeometry relative="1" as="geometry">
            <mxPoint x="110" y="90" as="sourcePoint" />
            <mxPoint x="130" y="90" as="targetPoint" />
          </mxGeometry>
        </mxCell>
        <mxCell id="EZZl3KFryeYBes5gL5bF-14" value="2" style="text;html=1;align=center;verticalAlign=middle;whiteSpace=wrap;rounded=0;fillColor=#f5f5f5;strokeColor=#666666;fontSize=14;fontColor=#333333;" vertex="1" parent="EZZl3KFryeYBes5gL5bF-1">
          <mxGeometry x="180" y="140" width="40" height="40" as="geometry" />
        </mxCell>
        <mxCell id="EZZl3KFryeYBes5gL5bF-15" style="edgeStyle=orthogonalEdgeStyle;rounded=0;orthogonalLoop=1;jettySize=auto;html=1;exitX=1;exitY=0.5;exitDx=0;exitDy=0;entryX=0;entryY=0.5;entryDx=0;entryDy=0;fillColor=#f5f5f5;strokeColor=#666666;strokeWidth=2;" edge="1" parent="EZZl3KFryeYBes5gL5bF-1" source="EZZl3KFryeYBes5gL5bF-12" target="EZZl3KFryeYBes5gL5bF-14">
          <mxGeometry relative="1" as="geometry">
            <mxPoint x="110" y="170" as="sourcePoint" />
            <mxPoint x="130" y="170" as="targetPoint" />
          </mxGeometry>
        </mxCell>
        <mxCell id="hByUk7qWorefqkr1HsWi-0" value="3" style="text;html=1;align=center;verticalAlign=middle;whiteSpace=wrap;rounded=0;fillColor=#dae8fc;strokeColor=#6c8ebf;fontSize=14;fontColor=#333333;" vertex="1" parent="EZZl3KFryeYBes5gL5bF-1">
          <mxGeometry x="240" y="140" width="40" height="40" as="geometry" />
        </mxCell>
        <mxCell id="hByUk7qWorefqkr1HsWi-2" style="edgeStyle=orthogonalEdgeStyle;rounded=0;orthogonalLoop=1;jettySize=auto;html=1;exitX=1;exitY=0.5;exitDx=0;exitDy=0;entryX=0;entryY=0.5;entryDx=0;entryDy=0;fillColor=#f5f5f5;strokeColor=#666666;strokeWidth=2;" edge="1" parent="EZZl3KFryeYBes5gL5bF-1" source="EZZl3KFryeYBes5gL5bF-14" target="hByUk7qWorefqkr1HsWi-0">
          <mxGeometry relative="1" as="geometry">
            <mxPoint x="170" y="170" as="sourcePoint" />
            <mxPoint x="190" y="170" as="targetPoint" />
          </mxGeometry>
        </mxCell>
      </root>
    </mxGraphModel>
  </diagram>
  <diagram name="5" id="EQVyn-JqFB-t1oI5ti18">
    <mxGraphModel dx="1257" dy="746" grid="1" gridSize="10" guides="1" tooltips="1" connect="1" arrows="1" fold="1" page="1" pageScale="1" pageWidth="380" pageHeight="240" math="0" shadow="0">
      <root>
        <mxCell id="cMA3wv6eyVrFX89z5pkG-0" />
        <mxCell id="cMA3wv6eyVrFX89z5pkG-1" parent="cMA3wv6eyVrFX89z5pkG-0" />
        <mxCell id="cMA3wv6eyVrFX89z5pkG-2" value="headA" style="text;html=1;align=center;verticalAlign=middle;whiteSpace=wrap;rounded=0;fontSize=10;" vertex="1" parent="cMA3wv6eyVrFX89z5pkG-1">
          <mxGeometry x="60" y="100" width="40" height="20" as="geometry" />
        </mxCell>
        <mxCell id="cMA3wv6eyVrFX89z5pkG-3" value="7" style="text;html=1;align=center;verticalAlign=middle;whiteSpace=wrap;rounded=0;fillColor=#dae8fc;strokeColor=#6c8ebf;fontSize=14;labelBackgroundColor=none;fontColor=#333333;" vertex="1" parent="cMA3wv6eyVrFX89z5pkG-1">
          <mxGeometry x="60" y="60" width="40" height="40" as="geometry" />
        </mxCell>
        <mxCell id="cMA3wv6eyVrFX89z5pkG-6" value="current" style="text;html=1;align=center;verticalAlign=middle;whiteSpace=wrap;rounded=0;fontSize=10;" vertex="1" parent="cMA3wv6eyVrFX89z5pkG-1">
          <mxGeometry x="60" y="40" width="40" height="20" as="geometry" />
        </mxCell>
        <mxCell id="cMA3wv6eyVrFX89z5pkG-7" value="1" style="text;html=1;align=center;verticalAlign=middle;whiteSpace=wrap;rounded=0;fillColor=#f5f5f5;strokeColor=#666666;fontSize=14;fontColor=#333333;" vertex="1" parent="cMA3wv6eyVrFX89z5pkG-1">
          <mxGeometry x="60" y="140" width="40" height="40" as="geometry" />
        </mxCell>
        <mxCell id="cMA3wv6eyVrFX89z5pkG-8" style="edgeStyle=orthogonalEdgeStyle;rounded=0;orthogonalLoop=1;jettySize=auto;html=1;exitX=0;exitY=0.5;exitDx=0;exitDy=0;entryX=0.5;entryY=0;entryDx=0;entryDy=0;fillColor=#dae8fc;strokeColor=#6c8ebf;" edge="1" parent="cMA3wv6eyVrFX89z5pkG-1" source="cMA3wv6eyVrFX89z5pkG-3" target="e5ofDLgcYeixZzIXZsv_-0">
          <mxGeometry relative="1" as="geometry">
            <Array as="points">
              <mxPoint x="40" y="80" />
              <mxPoint x="40" y="120" />
              <mxPoint x="320" y="120" />
            </Array>
          </mxGeometry>
        </mxCell>
        <mxCell id="cMA3wv6eyVrFX89z5pkG-9" value="result" style="text;html=1;align=center;verticalAlign=middle;whiteSpace=wrap;rounded=0;fontSize=10;" vertex="1" parent="cMA3wv6eyVrFX89z5pkG-1">
          <mxGeometry x="60" y="180" width="280" height="20" as="geometry" />
        </mxCell>
        <mxCell id="cMA3wv6eyVrFX89z5pkG-10" value="1" style="text;html=1;align=center;verticalAlign=middle;whiteSpace=wrap;rounded=0;fillColor=#f5f5f5;strokeColor=#666666;fontSize=14;fontColor=#333333;" vertex="1" parent="cMA3wv6eyVrFX89z5pkG-1">
          <mxGeometry x="120" y="140" width="40" height="40" as="geometry" />
        </mxCell>
        <mxCell id="cMA3wv6eyVrFX89z5pkG-11" style="edgeStyle=orthogonalEdgeStyle;rounded=0;orthogonalLoop=1;jettySize=auto;html=1;exitX=1;exitY=0.5;exitDx=0;exitDy=0;entryX=0;entryY=0.5;entryDx=0;entryDy=0;fillColor=#f5f5f5;strokeColor=#666666;strokeWidth=2;" edge="1" parent="cMA3wv6eyVrFX89z5pkG-1" source="cMA3wv6eyVrFX89z5pkG-7" target="cMA3wv6eyVrFX89z5pkG-10">
          <mxGeometry relative="1" as="geometry">
            <mxPoint x="110" y="90" as="sourcePoint" />
            <mxPoint x="130" y="90" as="targetPoint" />
          </mxGeometry>
        </mxCell>
        <mxCell id="cMA3wv6eyVrFX89z5pkG-12" value="2" style="text;html=1;align=center;verticalAlign=middle;whiteSpace=wrap;rounded=0;fillColor=#f5f5f5;strokeColor=#666666;fontSize=14;fontColor=#333333;" vertex="1" parent="cMA3wv6eyVrFX89z5pkG-1">
          <mxGeometry x="180" y="140" width="40" height="40" as="geometry" />
        </mxCell>
        <mxCell id="cMA3wv6eyVrFX89z5pkG-13" style="edgeStyle=orthogonalEdgeStyle;rounded=0;orthogonalLoop=1;jettySize=auto;html=1;exitX=1;exitY=0.5;exitDx=0;exitDy=0;entryX=0;entryY=0.5;entryDx=0;entryDy=0;fillColor=#f5f5f5;strokeColor=#666666;strokeWidth=2;" edge="1" parent="cMA3wv6eyVrFX89z5pkG-1" source="cMA3wv6eyVrFX89z5pkG-10" target="cMA3wv6eyVrFX89z5pkG-12">
          <mxGeometry relative="1" as="geometry">
            <mxPoint x="110" y="170" as="sourcePoint" />
            <mxPoint x="130" y="170" as="targetPoint" />
          </mxGeometry>
        </mxCell>
        <mxCell id="cMA3wv6eyVrFX89z5pkG-14" value="3" style="text;html=1;align=center;verticalAlign=middle;whiteSpace=wrap;rounded=0;fillColor=#f5f5f5;strokeColor=#666666;fontSize=14;fontColor=#333333;" vertex="1" parent="cMA3wv6eyVrFX89z5pkG-1">
          <mxGeometry x="240" y="140" width="40" height="40" as="geometry" />
        </mxCell>
        <mxCell id="cMA3wv6eyVrFX89z5pkG-15" style="edgeStyle=orthogonalEdgeStyle;rounded=0;orthogonalLoop=1;jettySize=auto;html=1;exitX=1;exitY=0.5;exitDx=0;exitDy=0;entryX=0;entryY=0.5;entryDx=0;entryDy=0;fillColor=#f5f5f5;strokeColor=#666666;strokeWidth=2;" edge="1" parent="cMA3wv6eyVrFX89z5pkG-1" source="cMA3wv6eyVrFX89z5pkG-12" target="cMA3wv6eyVrFX89z5pkG-14">
          <mxGeometry relative="1" as="geometry">
            <mxPoint x="170" y="170" as="sourcePoint" />
            <mxPoint x="190" y="170" as="targetPoint" />
          </mxGeometry>
        </mxCell>
        <mxCell id="e5ofDLgcYeixZzIXZsv_-0" value="7" style="text;html=1;align=center;verticalAlign=middle;whiteSpace=wrap;rounded=0;fillColor=#dae8fc;strokeColor=#6c8ebf;fontSize=14;fontColor=#333333;" vertex="1" parent="cMA3wv6eyVrFX89z5pkG-1">
          <mxGeometry x="300" y="140" width="40" height="40" as="geometry" />
        </mxCell>
        <mxCell id="e5ofDLgcYeixZzIXZsv_-1" style="edgeStyle=orthogonalEdgeStyle;rounded=0;orthogonalLoop=1;jettySize=auto;html=1;entryX=0;entryY=0.5;entryDx=0;entryDy=0;fillColor=#f5f5f5;strokeColor=#666666;strokeWidth=2;exitX=1;exitY=0.5;exitDx=0;exitDy=0;" edge="1" parent="cMA3wv6eyVrFX89z5pkG-1" source="cMA3wv6eyVrFX89z5pkG-14" target="e5ofDLgcYeixZzIXZsv_-0">
          <mxGeometry relative="1" as="geometry">
            <mxPoint x="290" y="180" as="sourcePoint" />
            <mxPoint x="250" y="170" as="targetPoint" />
          </mxGeometry>
        </mxCell>
      </root>
    </mxGraphModel>
  </diagram>
</mxfile>
